HIERARCHY
ROOT Hips
{
    OFFSET 0.000000 0.000000 0.000000
    CHANNELS 6 Xposition Yposition Zposition Zrotation Xrotation Yrotation
    JOINT Spine
    {
        OFFSET -0.000000 8.505030 0.000000
        CHANNELS 3 Zrotation Xrotation Yrotation
        JOINT Spine1
        {
            OFFSET -0.000000 25.070629 0.000000
            CHANNELS 3 Zrotation Xrotation Yrotation
            JOINT Neck
            {
                OFFSET -0.000000 24.967667 2.269788
                CHANNELS 3 Zrotation Xrotation Yrotation
                JOINT Head
                {
                    OFFSET -0.000000 14.520781 -2.074397
                    CHANNELS 3 Zrotation Xrotation Yrotation
                    End Site
                    {
                        OFFSET -0.000000 25.929966 0.000000
                    }
                }
            }
            JOINT LeftShoulder
            {
                OFFSET 4.117346 22.983784 -0.389865
                CHANNELS 3 Zrotation Xrotation Yrotation
                JOINT LeftArm
                {
                    OFFSET 11.957758 0.000000 0.000000
                    CHANNELS 3 Zrotation Xrotation Yrotation
                    JOINT LeftForeArm
                    {
                        OFFSET 31.907600 0.000000 0.000000
                        CHANNELS 3 Zrotation Xrotation Yrotation
                        JOINT LeftHand
                        {
                            OFFSET 28.601147 0.000000 0.000000
                            CHANNELS 3 Zrotation Xrotation Yrotation
                            End Site
                            {
                                OFFSET 15.557981 0.000000 0.000000
                            }
                        }
                    }
                }
            }
            JOINT RightShoulder
            {
                OFFSET -4.061940 22.983784 -0.389865
                CHANNELS 3 Zrotation Xrotation Yrotation
                JOINT RightArm
                {
                    OFFSET -11.957758 0.000000 0.000000
                    CHANNELS 3 Zrotation Xrotation Yrotation
                    JOINT RightForeArm
                    {
                        OFFSET -31.907600 0.000000 0.000000
                        CHANNELS 3 Zrotation Xrotation Yrotation
                        JOINT RightHand
                        {
                            OFFSET -28.601147 0.000000 0.000000
                            CHANNELS 3 Zrotation Xrotation Yrotation
                            End Site
                            {
                                OFFSET -15.557981 0.000000 0.000000
                            }
                        }
                    }
                }
            }
        }
    }
    JOINT LeftUpLeg
    {
        OFFSET 10.371986 0.000000 0.000000
        CHANNELS 3 Zrotation Xrotation Yrotation
        JOINT LeftLeg
        {
            OFFSET -0.000000 -42.486427 0.000000
            CHANNELS 3 Zrotation Xrotation Yrotation
            JOINT LeftFoot
            {
                OFFSET -0.000000 -48.322342 0.000000
                CHANNELS 3 Zrotation Xrotation Yrotation
                JOINT LeftToeBase
                {
                    OFFSET -0.000000 -6.741791 15.557981
                    CHANNELS 3 Zrotation Xrotation Yrotation
                    End Site
                    {
                        OFFSET -0.000000 0.000000 4.148795
                    }
                }
            }
        }
    }
    JOINT RightUpLeg
    {
        OFFSET -10.371986 0.000000 0.000000
        CHANNELS 3 Zrotation Xrotation Yrotation
        JOINT RightLeg
        {
            OFFSET -0.000000 -42.486427 0.000000
            CHANNELS 3 Zrotation Xrotation Yrotation
            JOINT RightFoot
            {
                OFFSET -0.000000 -48.322342 0.000000
                CHANNELS 3 Zrotation Xrotation Yrotation
                JOINT RightToeBase
                {
                    OFFSET -0.000000 -6.741791 15.557981
                    CHANNELS 3 Zrotation Xrotation Yrotation
                    End Site
                    {
                        OFFSET -0.000000 0.000000 4.148795
                    }
                }
            }
        }
    }
}
MOTION
Frames:    14
Frame Time:    0.008333
-83.404823    98.844849    71.430130    -0.132113    -2.285130    91.735390    1.058203    -8.081106    0.394805    1.448927    -1.415498    0.338094    -0.417780    30.189796    -3.761520    0.378310    5.180881    -3.936270    12.484610    -0.788215    -11.613843    -17.887625    0.300465    -4.221566    -3.624982    -4.075230    26.818129    -2.937454    -3.131853    -3.149089    -16.438494    2.490250    -9.703459    22.558563    -4.925824    20.356934    3.492838    1.287614    -22.274437    1.831658    1.912123    -3.946253    4.308862    3.412386    3.221896    -2.013587    5.380166    3.382721    -1.135322    -7.664322    8.887103    0.000000    0.000000    0.000000    1.612573    2.350314    3.456872    0.995436    6.862162    -1.003567    2.091773    -6.460231    -12.583385    0.000000    0.000000    0.000000    
-83.404419    98.845757    71.428391    -0.155662    -2.294637    91.755432    1.071667    -8.073528    0.390911    1.410092    -1.419422    0.332917    -0.420583    30.169184    -3.766181    0.435949    5.191072    -3.935807    12.483206    -0.783502    -11.632891    -17.861673    0.260146    -4.219160    -3.556965    -4.149739    26.853687    -3.018295    -3.218766    -3.166986    -16.445927    2.496223    -9.678184    22.584608    -4.966693    20.335705    3.457297    1.239794    -22.308424    1.859190    1.857454    -3.942849    4.312183    3.386987    3.219347    -2.006976    5.375620    3.409625    -1.095356    -7.658417    8.850039    0.000000    0.000000    0.000000    1.617056    2.325225    3.415745    1.002335    6.855748    -1.067333    2.110969    -6.435948    -12.506210    0.000000    0.000000    0.000000    
-83.399750    98.845207    71.427048    -0.170901    -2.305027    91.754898    1.064721    -8.064433    0.404453    1.411599    -1.425259    0.347057    -0.410480    30.184019    -3.813982    0.473709    5.172105    -3.980472    12.469526    -0.761666    -11.682841    -17.828764    0.151944    -4.218221    -3.565913    -4.139835    26.889664    -3.051208    -3.204690    -3.164212    -16.436220    2.536959    -9.666650    22.612608    -5.339316    20.332502    3.674689    1.480513    -22.420799    1.569405    2.156492    -3.815904    4.318655    3.382831    3.222092    -2.008359    5.359756    3.387347    -1.151154    -7.660345    8.886168    0.000000    0.000000    0.000000    1.625398    2.312241    3.410634    1.001545    6.866885    -1.002566    2.121428    -6.460040    -12.571568    0.000000    0.000000    0.000000    
-83.399078    98.846588    71.426239    -0.195518    -2.308627    91.761765    1.068150    -8.055984    0.406541    1.380437    -1.446565    0.348959    -0.411822    30.187262    -3.835888    0.528032    5.203104    -3.998307    12.456409    -0.721602    -11.712941    -17.790758    0.097682    -4.216655    -3.636134    -4.083175    26.892326    -2.969034    -3.134556    -3.119918    -16.416716    2.571597    -9.634027    22.621765    -5.448441    20.305901    3.669359    1.588520    -22.420013    1.800168    2.255459    -3.828367    4.315892    3.362414    3.203607    -2.001053    5.352095    3.402483    -1.081484    -7.656235    8.879532    0.000000    0.000000    0.000000    1.622691    2.285272    3.412304    1.011733    6.874101    -1.015196    2.123722    -6.455471    -12.568469    0.000000    0.000000    0.000000    
-83.397690    98.847176    71.424614    -0.211368    -2.312333    91.770905    1.061851    -8.029513    0.412576    1.367641    -1.495531    0.356082    -0.380151    30.277355    -3.871047    0.539495    5.127585    -4.029387    12.437442    -0.663667    -11.770700    -17.763510    0.036398    -4.206791    -3.629216    -4.088656    26.900196    -2.994948    -3.140967    -3.109958    -16.368073    2.618865    -9.620278    22.596647    -5.559903    20.293344    3.664729    1.593288    -22.416729    1.778037    2.260515    -3.791955    4.315013    3.350359    3.187222    -1.999967    5.340699    3.438451    -1.075388    -7.654952    8.859163    0.000000    0.000000    0.000000    1.618766    2.268914    3.390982    1.021742    6.866511    -1.041843    2.144633    -6.439787    -12.528696    0.000000    0.000000    0.000000    
-83.396927    98.846878    71.425316    -0.229894    -2.320668    91.768059    1.068897    -8.022458    0.414877    1.345925    -1.510521    0.357864    -0.375740    30.333967    -3.884177    0.569604    5.097146    -4.039562    12.426055    -0.626020    -11.795995    -17.695560    -0.096817    -4.204832    -3.701546    -4.068128    26.908318    -2.962500    -3.104357    -3.085639    -16.330610    2.610460    -9.577507    22.573776    -5.619415    20.255545    3.646861    1.451395    -22.397038    1.473748    2.125113    -3.749623    4.323752    3.327979    3.204428    -1.999389    5.350597    3.426750    -1.058468    -7.663303    8.860843    0.000000    0.000000    0.000000    1.624082    2.241252    3.387888    1.024824    6.888119    -1.045129    2.147017    -6.453342    -12.524183    0.000000    0.000000    0.000000    
-83.399612    98.846481    71.430229    -0.250515    -2.325272    91.772942    1.064106    -8.003227    0.415661    1.328027    -1.541034    0.359124    -0.427260    30.333349    -3.885357    0.691632    5.139041    -4.036188    12.414784    -0.582880    -11.798966    -17.717686    -0.058366    -4.226616    -3.559037    -4.138508    26.897707    -3.102576    -3.204897    -3.107910    -16.301119    2.616503    -9.551701    22.576744    -5.733789    20.225916    3.644773    1.484388    -22.366863    1.479950    2.157244    -3.690297    4.331928    3.298784    3.222963    -1.997144    5.357475    3.421882    -1.074543    -7.668551    8.835057    0.000000    0.000000    0.000000    1.633166    2.213755    3.369770    1.020504    6.889871    -1.047979    2.160925    -6.443277    -12.509903    0.000000    0.000000    0.000000    
-83.392357    98.844147    71.425072    -0.265766    -2.316353    91.784645    1.059703    -8.011147    0.410947    1.305106    -1.516615    0.353984    -0.446547    30.276100    -3.891892    0.728649    5.249891    -4.042457    12.419568    -0.561477    -11.759039    -17.728422    -0.052777    -4.282193    -3.615717    -4.079243    26.864418    -3.001287    -3.137083    -3.061679    -16.309914    2.600917    -9.539025    22.610598    -5.814443    20.208834    3.516499    1.393146    -22.276545    1.714136    2.029699    -3.725639    4.319320    3.290835    3.201408    -1.996179    5.353676    3.418045    -1.144160    -7.675965    8.852656    0.000000    0.000000    0.000000    1.613848    2.203025    3.340649    1.030231    6.901031    -1.033261    2.133913    -6.471796    -12.500947    0.000000    0.000000    0.000000    
-83.393227    98.842842    71.427055    -0.287476    -2.323779    91.789787    1.067226    -8.016969    0.412830    1.279277    -1.497853    0.354920    -0.382504    30.257563    -3.905147    0.664962    5.287351    -4.053767    12.442013    -0.538467    -11.719922    -17.752810    -0.038424    -4.348928    -3.548499    -4.130731    26.852304    -3.029769    -3.203330    -3.097868    -16.292076    2.600160    -9.532233    22.618019    -5.846887    20.190016    3.509400    1.403611    -22.216066    1.735707    2.036225    -3.723703    4.331504    3.258745    3.219612    -2.000510    5.366176    3.393130    -1.076395    -7.681490    8.850181    0.000000    0.000000    0.000000    1.619645    2.171278    3.338251    1.035290    6.915769    -1.074665    2.151139    -6.469558    -12.460272    0.000000    0.000000    0.000000    
-83.394035    98.841606    71.435181    -0.293070    -2.344107    91.781578    1.060255    -7.995513    0.421137    1.308724    -1.498635    0.364332    -0.410276    30.244303    -3.926286    0.682417    5.357099    -4.078320    12.422011    -0.537443    -11.718318    -17.783442    0.024709    -4.362039    -3.503667    -4.143306    26.807962    -3.061939    -3.227045    -3.103372    -16.285955    2.611068    -9.532230    22.606014    -5.867952    20.185404    3.536810    1.574572    -22.162294    2.034213    2.200049    -3.782534    4.363043    3.246045    3.236031    -2.012209    5.383414    3.371514    -1.037525    -7.698287    8.871820    0.000000    0.000000    0.000000    1.651449    2.156024    3.340389    1.025660    6.927821    -1.070170    2.174809    -6.471214    -12.473007    0.000000    0.000000    0.000000    
-83.390518    98.836395    71.435562    -0.311749    -2.329646    91.790024    0.999630    -8.028455    0.429517    1.347321    -1.430151    0.376351    -0.514763    30.068384    -3.932099    0.872699    5.628195    -4.081624    12.476246    -0.536343    -11.730196    -17.858341    0.032933    -4.398589    -3.476882    -4.164207    26.777515    -3.118182    -3.253029    -3.131887    -16.295921    2.623512    -9.546590    22.610046    -5.834081    20.163607    3.662286    1.718481    -22.129612    1.877927    2.373111    -3.746717    4.344865    3.227566    3.233276    -2.006770    5.383206    3.368302    -1.113491    -7.703310    8.879112    0.000000    0.000000    0.000000    1.637708    2.131704    3.331413    1.024552    6.941342    -1.081593    2.143444    -6.488036    -12.455441    0.000000    0.000000    0.000000    
-83.389153    98.834824    71.439873    -0.334768    -2.331288    91.791687    0.978480    -8.043674    0.432354    1.372213    -1.401739    0.380509    -0.347118    30.155779    -3.957826    0.630513    5.465123    -4.107717    12.458133    -0.585861    -11.758492    -17.887909    0.122096    -4.350200    -3.443390    -4.179555    26.719404    -3.175459    -3.275254    -3.180846    -16.318604    2.617745    -9.560504    22.629038    -5.800594    20.163845    3.678593    1.761789    -22.065966    1.891054    2.417855    -3.695815    4.350897    3.199328    3.244219    -2.012014    5.396564    3.337178    -1.043789    -7.711853    8.899073    0.000000    0.000000    0.000000    1.643149    2.105570    3.332054    1.022949    6.949379    -1.085789    2.143529    -6.496848    -12.454888    0.000000    0.000000    0.000000    
-83.388885    98.830925    71.443527    -0.366123    -2.334083    91.789429    0.954961    -8.065737    0.433568    1.410670    -1.378602    0.383342    -0.361429    30.135641    -3.950088    0.613823    5.499249    -4.103375    12.432446    -0.597945    -11.747264    -17.908653    0.180234    -4.355353    -3.410874    -4.209774    26.666052    -3.183082    -3.313574    -3.220008    -16.348619    2.624077    -9.555277    22.656067    -5.798385    20.160637    3.676615    1.778498    -22.000408    1.848050    2.434974    -3.595094    4.354602    3.170620    3.247393    -2.016733    5.393566    3.336164    -1.086662    -7.716126    8.917676    0.000000    0.000000    0.000000    1.649382    2.066516    3.349723    1.023620    6.960250    -1.070425    2.131497    -6.494722    -12.494968    0.000000    0.000000    0.000000    
-83.384415    98.829689    71.449394    -0.373754    -2.353558    91.786880    1.062547    -8.067513    0.408306    1.269620    -1.357380    0.348411    -0.439003    30.117289    -3.873049    0.679931    5.547954    -4.027702    12.418893    -0.601742    -11.652826    -17.855711    0.277395    -4.352582    -3.392471    -4.245922    26.584806    -3.217216    -3.356730    -3.182130    -16.283623    2.587301    -9.495177    22.661747    -5.755098    20.192945    3.547993    1.562808    -21.903416    1.756569    2.193758    -3.619998    4.388999    3.170389    3.235682    -2.040829    5.387300    3.326310    -0.973744    -7.729308    8.930573    0.000000    0.000000    0.000000    1.680124    2.057049    3.369479    1.012845    6.971089    -1.108564    2.132162    -6.500589    -12.475085    0.000000    0.000000    0.000000    
